<svg height="512pt" viewBox="0 0 512 512" width="512pt" xmlns="http://www.w3.org/2000/svg"><path d="m256 0c-140.96875 0-256 115.050781-256 256 0 140.96875 115.050781 256 256 256 140.96875 0 256-115.050781 256-256 0-140.96875-115.050781-256-256-256zm0 482c-124.617188 0-226-101.382812-226-226s101.382812-226 226-226 226 101.382812 226 226-101.382812 226-226 226zm0 0"/><path d="m256 61c-107.523438 0-195 87.476562-195 195s87.476562 195 195 195 195-87.476562 195-195-87.476562-195-195-195zm0 360c-90.980469 0-165-74.019531-165-165s74.019531-165 165-165 165 74.019531 165 165-74.019531 165-165 165zm0 0"/><path d="m226 166h-60c-8.285156 0-15 6.714844-15 15v150c0 8.285156 6.714844 15 15 15h60c8.285156 0 15-6.714844 15-15v-150c0-8.285156-6.714844-15-15-15zm-15 150h-30v-120h30zm0 0"/><path d="m346 166h-60c-8.285156 0-15 6.714844-15 15v150c0 8.285156 6.714844 15 15 15h60c8.285156 0 15-6.714844 15-15v-150c0-8.285156-6.714844-15-15-15zm-15 150h-30v-120h30zm0 0"/></svg>